  <svg
                width="633"
                height="245"
                viewBox="0 0 633 245"
                fill="none"
                xmlns="http://www.w3.org/2000/svg"
              >
                <g filter="url(#filter0_d_107_2637)">
                  <rect
                    x="4"
                    y="4"
                    width="625"
                    height="237"
                    rx="8"
                    fill="url(#paint0_linear_107_2637)"
                  />
                  <path
                    d="M35.0512 40.57C35.1176 40.1055 35.2456 39.6955 35.4352 39.34C35.6248 38.9798 35.8641 38.6788 36.1533 38.437C36.4472 38.1953 36.7813 38.0128 37.1558 37.8896C37.535 37.7616 37.9426 37.6976 38.3787 37.6976C38.8101 37.6976 39.2082 37.7592 39.5732 37.8825C39.9382 38.0057 40.251 38.1811 40.5117 38.4086C40.7772 38.6361 40.9833 38.911 41.1303 39.2334C41.2772 39.5557 41.3507 39.9136 41.3507 40.307C41.3507 40.6293 41.308 40.9184 41.2227 41.1744C41.1421 41.4256 41.0236 41.646 40.8672 41.8356C40.7155 42.0252 40.5307 42.1864 40.3126 42.3191C40.0946 42.4518 39.8505 42.5608 39.5803 42.6462C40.2439 42.8168 40.7416 43.1107 41.0734 43.5278C41.4099 43.9402 41.5782 44.4568 41.5782 45.0778C41.5782 45.547 41.4882 45.9689 41.308 46.3434C41.1327 46.7178 40.8909 47.0378 40.5828 47.3032C40.2747 47.5639 39.9145 47.7654 39.5021 47.9076C39.0945 48.045 38.656 48.1138 38.1867 48.1138C37.6464 48.1138 37.1842 48.0474 36.8003 47.9147C36.4164 47.7772 36.0917 47.59 35.8262 47.353C35.5608 47.116 35.3427 46.8363 35.1721 46.514C35.0015 46.1869 34.8569 45.8338 34.7384 45.4546L35.2859 45.2271C35.4281 45.1655 35.5655 45.1489 35.6982 45.1773C35.8357 45.2058 35.9352 45.284 35.9969 45.412C36.0585 45.5447 36.1343 45.7035 36.2244 45.8883C36.3192 46.0732 36.4472 46.2509 36.6083 46.4216C36.7695 46.5922 36.9733 46.7368 37.2198 46.8553C37.471 46.9738 37.7886 47.033 38.1725 47.033C38.528 47.033 38.8385 46.9762 39.1039 46.8624C39.3741 46.7439 39.5969 46.5922 39.7723 46.4074C39.9524 46.2225 40.0875 46.0163 40.1775 45.7888C40.2676 45.5613 40.3126 45.3361 40.3126 45.1133C40.3126 44.8384 40.2771 44.5872 40.206 44.3597C40.1349 44.1322 40.0022 43.9354 39.8078 43.7695C39.6135 43.6036 39.3457 43.4733 39.0044 43.3785C38.6679 43.2837 38.2341 43.2363 37.7033 43.2363V42.3191C38.1393 42.3144 38.5091 42.267 38.8124 42.1769C39.1205 42.0868 39.3694 41.9636 39.559 41.8072C39.7533 41.6508 39.8931 41.4635 39.9785 41.2455C40.0685 41.0275 40.1136 40.7857 40.1136 40.5203C40.1136 40.2264 40.0662 39.9704 39.9714 39.7524C39.8813 39.5344 39.7557 39.3542 39.5945 39.212C39.4334 39.0698 39.2414 38.9632 39.0186 38.8921C38.8006 38.821 38.5636 38.7854 38.3076 38.7854C38.0517 38.7854 37.8123 38.8234 37.5895 38.8992C37.3715 38.975 37.1771 39.0817 37.0065 39.2191C36.8406 39.3519 36.7008 39.5107 36.587 39.6955C36.4732 39.8804 36.3927 40.0842 36.3453 40.307C36.2836 40.4729 36.2054 40.5843 36.1106 40.6411C36.0206 40.6933 35.8878 40.7075 35.7125 40.6838L35.0512 40.57ZM50.1966 42.9092C50.1966 43.8004 50.0995 44.573 49.9051 45.2271C49.7155 45.8765 49.4548 46.4145 49.123 46.8411C48.7912 47.2677 48.3978 47.5852 47.9428 47.7938C47.4925 48.0024 47.009 48.1067 46.4923 48.1067C45.9709 48.1067 45.4851 48.0024 45.0348 47.7938C44.5892 47.5852 44.2005 47.2677 43.8687 46.8411C43.5369 46.4145 43.2762 45.8765 43.0866 45.2271C42.897 44.573 42.8022 43.8004 42.8022 42.9092C42.8022 42.0181 42.897 41.2455 43.0866 40.5914C43.2762 39.9373 43.5369 39.3969 43.8687 38.9703C44.2005 38.539 44.5892 38.219 45.0348 38.0104C45.4851 37.8019 45.9709 37.6976 46.4923 37.6976C47.009 37.6976 47.4925 37.8019 47.9428 38.0104C48.3978 38.219 48.7912 38.539 49.123 38.9703C49.4548 39.3969 49.7155 39.9373 49.9051 40.5914C50.0995 41.2455 50.1966 42.0181 50.1966 42.9092ZM48.8813 42.9092C48.8813 42.1319 48.8149 41.4801 48.6822 40.954C48.5542 40.4231 48.3789 39.9965 48.1561 39.6742C47.938 39.3519 47.6844 39.122 47.3953 38.9845C47.1062 38.8423 46.8052 38.7712 46.4923 38.7712C46.1795 38.7712 45.8785 38.8423 45.5894 38.9845C45.3002 39.122 45.0466 39.3519 44.8286 39.6742C44.6106 39.9965 44.4352 40.4231 44.3025 40.954C44.1745 41.4801 44.1105 42.1319 44.1105 42.9092C44.1105 43.6866 44.1745 44.3383 44.3025 44.8645C44.4352 45.3906 44.6106 45.8149 44.8286 46.1372C45.0466 46.4595 45.3002 46.6918 45.5894 46.834C45.8785 46.9714 46.1795 47.0401 46.4923 47.0401C46.8052 47.0401 47.1062 46.9714 47.3953 46.834C47.6844 46.6918 47.938 46.4595 48.1561 46.1372C48.3789 45.8149 48.5542 45.3906 48.6822 44.8645C48.8149 44.3383 48.8813 43.6866 48.8813 42.9092ZM58.4454 42.9092C58.4454 43.8004 58.3482 44.573 58.1538 45.2271C57.9642 45.8765 57.7035 46.4145 57.3717 46.8411C57.0399 47.2677 56.6465 47.5852 56.1915 47.7938C55.7412 48.0024 55.2577 48.1067 54.741 48.1067C54.2196 48.1067 53.7338 48.0024 53.2835 47.7938C52.8379 47.5852 52.4493 47.2677 52.1175 46.8411C51.7857 46.4145 51.525 45.8765 51.3354 45.2271C51.1458 44.573 51.051 43.8004 51.051 42.9092C51.051 42.0181 51.1458 41.2455 51.3354 40.5914C51.525 39.9373 51.7857 39.3969 52.1175 38.9703C52.4493 38.539 52.8379 38.219 53.2835 38.0104C53.7338 37.8019 54.2196 37.6976 54.741 37.6976C55.2577 37.6976 55.7412 37.8019 56.1915 38.0104C56.6465 38.219 57.0399 38.539 57.3717 38.9703C57.7035 39.3969 57.9642 39.9373 58.1538 40.5914C58.3482 41.2455 58.4454 42.0181 58.4454 42.9092ZM57.13 42.9092C57.13 42.1319 57.0636 41.4801 56.9309 40.954C56.8029 40.4231 56.6276 39.9965 56.4048 39.6742C56.1867 39.3519 55.9332 39.122 55.644 38.9845C55.3549 38.8423 55.0539 38.7712 54.741 38.7712C54.4282 38.7712 54.1272 38.8423 53.8381 38.9845C53.5489 39.122 53.2953 39.3519 53.0773 39.6742C52.8593 39.9965 52.6839 40.4231 52.5512 40.954C52.4232 41.4801 52.3592 42.1319 52.3592 42.9092C52.3592 43.6866 52.4232 44.3383 52.5512 44.8645C52.6839 45.3906 52.8593 45.8149 53.0773 46.1372C53.2953 46.4595 53.5489 46.6918 53.8381 46.834C54.1272 46.9714 54.4282 47.0401 54.741 47.0401C55.0539 47.0401 55.3549 46.9714 55.644 46.834C55.9332 46.6918 56.1867 46.4595 56.4048 46.1372C56.6276 45.8149 56.8029 45.3906 56.9309 44.8645C57.0636 44.3383 57.13 43.6866 57.13 42.9092Z"
                    fill="#3A3541"
                  />
                  <path
                    d="M41.1445 128.798C41.282 128.798 41.391 128.839 41.4716 128.919C41.5521 129 41.5924 129.104 41.5924 129.232V130H34.7953V129.566C34.7953 129.476 34.8142 129.384 34.8522 129.289C34.8901 129.194 34.9493 129.107 35.0299 129.026L38.2934 125.748C38.5636 125.473 38.8101 125.21 39.0328 124.959C39.2556 124.703 39.4452 124.447 39.6016 124.191C39.7581 123.935 39.8789 123.677 39.9642 123.416C40.0496 123.151 40.0922 122.869 40.0922 122.57C40.0922 122.271 40.0448 122.011 39.95 121.788C39.8552 121.56 39.7249 121.373 39.559 121.226C39.3978 121.079 39.2058 120.97 38.9831 120.899C38.7603 120.823 38.5209 120.785 38.265 120.785C38.0043 120.785 37.7649 120.823 37.5468 120.899C37.3288 120.975 37.1345 121.082 36.9638 121.219C36.7979 121.352 36.6581 121.511 36.5443 121.696C36.4306 121.88 36.35 122.084 36.3026 122.307C36.2457 122.473 36.1675 122.584 36.068 122.641C35.9732 122.693 35.8381 122.708 35.6627 122.684L35.0015 122.57C35.0678 122.106 35.1958 121.696 35.3854 121.34C35.5797 120.98 35.8215 120.679 36.1106 120.437C36.4045 120.195 36.7387 120.013 37.1131 119.89C37.4876 119.762 37.8929 119.698 38.3289 119.698C38.7603 119.698 39.1632 119.762 39.5376 119.89C39.9121 120.018 40.2368 120.205 40.5117 120.451C40.7866 120.693 41.0023 120.989 41.1587 121.34C41.3151 121.691 41.3934 122.089 41.3934 122.534C41.3934 122.914 41.3365 123.267 41.2227 123.594C41.109 123.916 40.9549 124.224 40.7606 124.518C40.5662 124.812 40.3411 125.099 40.0851 125.378C39.8339 125.658 39.5661 125.94 39.2817 126.225L36.5941 128.969C36.7837 128.917 36.9757 128.877 37.17 128.848C37.3644 128.815 37.5516 128.798 37.7317 128.798H41.1445ZM50.1966 124.909C50.1966 125.8 50.0995 126.573 49.9051 127.227C49.7155 127.876 49.4548 128.414 49.123 128.841C48.7912 129.268 48.3978 129.585 47.9428 129.794C47.4925 130.002 47.009 130.107 46.4923 130.107C45.9709 130.107 45.4851 130.002 45.0348 129.794C44.5892 129.585 44.2005 129.268 43.8687 128.841C43.5369 128.414 43.2762 127.876 43.0866 127.227C42.897 126.573 42.8022 125.8 42.8022 124.909C42.8022 124.018 42.897 123.245 43.0866 122.591C43.2762 121.937 43.5369 121.397 43.8687 120.97C44.2005 120.539 44.5892 120.219 45.0348 120.01C45.4851 119.802 45.9709 119.698 46.4923 119.698C47.009 119.698 47.4925 119.802 47.9428 120.01C48.3978 120.219 48.7912 120.539 49.123 120.97C49.4548 121.397 49.7155 121.937 49.9051 122.591C50.0995 123.245 50.1966 124.018 50.1966 124.909ZM48.8813 124.909C48.8813 124.132 48.8149 123.48 48.6822 122.954C48.5542 122.423 48.3789 121.997 48.1561 121.674C47.938 121.352 47.6844 121.122 47.3953 120.985C47.1062 120.842 46.8052 120.771 46.4923 120.771C46.1795 120.771 45.8785 120.842 45.5894 120.985C45.3002 121.122 45.0466 121.352 44.8286 121.674C44.6106 121.997 44.4352 122.423 44.3025 122.954C44.1745 123.48 44.1105 124.132 44.1105 124.909C44.1105 125.687 44.1745 126.338 44.3025 126.864C44.4352 127.391 44.6106 127.815 44.8286 128.137C45.0466 128.459 45.3002 128.692 45.5894 128.834C45.8785 128.971 46.1795 129.04 46.4923 129.04C46.8052 129.04 47.1062 128.971 47.3953 128.834C47.6844 128.692 47.938 128.459 48.1561 128.137C48.3789 127.815 48.5542 127.391 48.6822 126.864C48.8149 126.338 48.8813 125.687 48.8813 124.909ZM58.4454 124.909C58.4454 125.8 58.3482 126.573 58.1538 127.227C57.9642 127.876 57.7035 128.414 57.3717 128.841C57.0399 129.268 56.6465 129.585 56.1915 129.794C55.7412 130.002 55.2577 130.107 54.741 130.107C54.2196 130.107 53.7338 130.002 53.2835 129.794C52.8379 129.585 52.4493 129.268 52.1175 128.841C51.7857 128.414 51.525 127.876 51.3354 127.227C51.1458 126.573 51.051 125.8 51.051 124.909C51.051 124.018 51.1458 123.245 51.3354 122.591C51.525 121.937 51.7857 121.397 52.1175 120.97C52.4493 120.539 52.8379 120.219 53.2835 120.01C53.7338 119.802 54.2196 119.698 54.741 119.698C55.2577 119.698 55.7412 119.802 56.1915 120.01C56.6465 120.219 57.0399 120.539 57.3717 120.97C57.7035 121.397 57.9642 121.937 58.1538 122.591C58.3482 123.245 58.4454 124.018 58.4454 124.909ZM57.13 124.909C57.13 124.132 57.0636 123.48 56.9309 122.954C56.8029 122.423 56.6276 121.997 56.4048 121.674C56.1867 121.352 55.9332 121.122 55.644 120.985C55.3549 120.842 55.0539 120.771 54.741 120.771C54.4282 120.771 54.1272 120.842 53.8381 120.985C53.5489 121.122 53.2953 121.352 53.0773 121.674C52.8593 121.997 52.6839 122.423 52.5512 122.954C52.4232 123.48 52.3592 124.132 52.3592 124.909C52.3592 125.687 52.4232 126.338 52.5512 126.864C52.6839 127.391 52.8593 127.815 53.0773 128.137C53.2953 128.459 53.5489 128.692 53.8381 128.834C54.1272 128.971 54.4282 129.04 54.741 129.04C55.0539 129.04 55.3549 128.971 55.644 128.834C55.9332 128.692 56.1867 128.459 56.4048 128.137C56.6276 127.815 56.8029 127.391 56.9309 126.864C57.0636 126.338 57.13 125.687 57.13 124.909Z"
                    fill="#3A3541"
                  />
                  <path
                    d="M41.3649 211.033V212H35.9044V211.033H38.0872V204.087C38.0872 203.878 38.0943 203.667 38.1085 203.454L36.2955 205.011C36.2339 205.063 36.1722 205.096 36.1106 205.11C36.049 205.12 35.9921 205.12 35.94 205.11C35.8878 205.101 35.8381 205.082 35.7907 205.054C35.748 205.025 35.7148 204.994 35.6911 204.961L35.293 204.414L38.3289 201.79H39.3599V211.033H41.3649ZM50.1966 206.909C50.1966 207.8 50.0995 208.573 49.9051 209.227C49.7155 209.876 49.4548 210.414 49.123 210.841C48.7912 211.268 48.3978 211.585 47.9428 211.794C47.4925 212.002 47.009 212.107 46.4923 212.107C45.9709 212.107 45.4851 212.002 45.0348 211.794C44.5892 211.585 44.2005 211.268 43.8687 210.841C43.5369 210.414 43.2762 209.876 43.0866 209.227C42.897 208.573 42.8022 207.8 42.8022 206.909C42.8022 206.018 42.897 205.245 43.0866 204.591C43.2762 203.937 43.5369 203.397 43.8687 202.97C44.2005 202.539 44.5892 202.219 45.0348 202.01C45.4851 201.802 45.9709 201.698 46.4923 201.698C47.009 201.698 47.4925 201.802 47.9428 202.01C48.3978 202.219 48.7912 202.539 49.123 202.97C49.4548 203.397 49.7155 203.937 49.9051 204.591C50.0995 205.245 50.1966 206.018 50.1966 206.909ZM48.8813 206.909C48.8813 206.132 48.8149 205.48 48.6822 204.954C48.5542 204.423 48.3789 203.997 48.1561 203.674C47.938 203.352 47.6844 203.122 47.3953 202.985C47.1062 202.842 46.8052 202.771 46.4923 202.771C46.1795 202.771 45.8785 202.842 45.5894 202.985C45.3002 203.122 45.0466 203.352 44.8286 203.674C44.6106 203.997 44.4352 204.423 44.3025 204.954C44.1745 205.48 44.1105 206.132 44.1105 206.909C44.1105 207.687 44.1745 208.338 44.3025 208.864C44.4352 209.391 44.6106 209.815 44.8286 210.137C45.0466 210.459 45.3002 210.692 45.5894 210.834C45.8785 210.971 46.1795 211.04 46.4923 211.04C46.8052 211.04 47.1062 210.971 47.3953 210.834C47.6844 210.692 47.938 210.459 48.1561 210.137C48.3789 209.815 48.5542 209.391 48.6822 208.864C48.8149 208.338 48.8813 207.687 48.8813 206.909ZM58.4454 206.909C58.4454 207.8 58.3482 208.573 58.1538 209.227C57.9642 209.876 57.7035 210.414 57.3717 210.841C57.0399 211.268 56.6465 211.585 56.1915 211.794C55.7412 212.002 55.2577 212.107 54.741 212.107C54.2196 212.107 53.7338 212.002 53.2835 211.794C52.8379 211.585 52.4493 211.268 52.1175 210.841C51.7857 210.414 51.525 209.876 51.3354 209.227C51.1458 208.573 51.051 207.8 51.051 206.909C51.051 206.018 51.1458 205.245 51.3354 204.591C51.525 203.937 51.7857 203.397 52.1175 202.97C52.4493 202.539 52.8379 202.219 53.2835 202.01C53.7338 201.802 54.2196 201.698 54.741 201.698C55.2577 201.698 55.7412 201.802 56.1915 202.01C56.6465 202.219 57.0399 202.539 57.3717 202.97C57.7035 203.397 57.9642 203.937 58.1538 204.591C58.3482 205.245 58.4454 206.018 58.4454 206.909ZM57.13 206.909C57.13 206.132 57.0636 205.48 56.9309 204.954C56.8029 204.423 56.6276 203.997 56.4048 203.674C56.1867 203.352 55.9332 203.122 55.644 202.985C55.3549 202.842 55.0539 202.771 54.741 202.771C54.4282 202.771 54.1272 202.842 53.8381 202.985C53.5489 203.122 53.2953 203.352 53.0773 203.674C52.8593 203.997 52.6839 204.423 52.5512 204.954C52.4232 205.48 52.3592 206.132 52.3592 206.909C52.3592 207.687 52.4232 208.338 52.5512 208.864C52.6839 209.391 52.8593 209.815 53.0773 210.137C53.2953 210.459 53.5489 210.692 53.8381 210.834C54.1272 210.971 54.4282 211.04 54.741 211.04C55.0539 211.04 55.3549 210.971 55.644 210.834C55.9332 210.692 56.1867 210.459 56.4048 210.137C56.6276 209.815 56.8029 209.391 56.9309 208.864C57.0636 208.338 57.13 207.687 57.13 206.909Z"
                    fill="#3A3541"
                  />
                  <path
                    d="M89 211H599"
                    stroke="#DECCFE"
                    stroke-dasharray="6 6"
                  />
                  <path
                    d="M89 127H599"
                    stroke="#DECCFE"
                    stroke-dasharray="6 6"
                  />
                  <path
                    d="M89 43H599"
                    stroke="#DECCFE"
                    stroke-dasharray="6 6"
                  />
                  <rect
                    x="111"
                    y="110"
                    width="4"
                    height="101"
                    rx="2"
                    fill="white"
                  />
                  <rect
                    x="111"
                    y="53"
                    width="4"
                    height="52"
                    rx="2"
                    fill="#6E39CB"
                  />
                  <rect
                    x="163"
                    y="145"
                    width="4"
                    height="66"
                    rx="2"
                    fill="white"
                  />
                  <rect
                    x="163"
                    y="107"
                    width="4"
                    height="33"
                    rx="2"
                    fill="#6E39CB"
                  />
                  <rect
                    x="367"
                    y="107"
                    width="4"
                    height="104"
                    rx="2"
                    fill="white"
                  />
                  <rect
                    x="367"
                    y="51"
                    width="4"
                    height="51"
                    rx="2"
                    fill="#6E39CB"
                  />
                  <rect
                    x="420"
                    y="144"
                    width="4"
                    height="67"
                    rx="2"
                    fill="white"
                  />
                  <rect
                    x="420"
                    y="107"
                    width="4"
                    height="32"
                    rx="2"
                    fill="#6E39CB"
                  />
                  <rect
                    x="473"
                    y="179"
                    width="4"
                    height="32"
                    rx="2"
                    fill="white"
                  />
                  <rect
                    x="473"
                    y="142"
                    width="4"
                    height="32"
                    rx="2"
                    fill="#6E39CB"
                  />
                  <rect
                    x="265"
                    y="132"
                    width="4"
                    height="79"
                    rx="2"
                    fill="white"
                  />
                  <rect
                    x="265"
                    y="89"
                    width="4"
                    height="38"
                    rx="2"
                    fill="#6E39CB"
                  />
                  <rect
                    x="524"
                    y="132"
                    width="4"
                    height="79"
                    rx="2"
                    fill="white"
                  />
                  <rect
                    x="524"
                    y="89"
                    width="4"
                    height="38"
                    rx="2"
                    fill="#6E39CB"
                  />
                  <rect
                    x="212"
                    y="112"
                    width="4"
                    height="99"
                    rx="2"
                    fill="white"
                  />
                  <rect
                    x="212"
                    y="69"
                    width="4"
                    height="38"
                    rx="2"
                    fill="#6E39CB"
                  />
                  <rect
                    x="316"
                    y="179"
                    width="4"
                    height="32"
                    rx="2"
                    fill="white"
                  />
                  <rect
                    x="316"
                    y="153"
                    width="4"
                    height="21"
                    rx="2"
                    fill="#6E39CB"
                  />
                  <rect
                    x="575"
                    y="179"
                    width="4"
                    height="32"
                    rx="2"
                    fill="white"
                  />
                  <rect
                    x="575"
                    y="153"
                    width="4"
                    height="21"
                    rx="2"
                    fill="#6E39CB"
                  />
                  <circle cx="113.5" cy="46.5" r="4.5" fill="white" />
                  <circle cx="113.5" cy="46.5" r="2.5" fill="#6E39CB" />
                </g>
                <defs>
                  <filter
                    id="filter0_d_107_2637"
                    x="0"
                    y="0"
                    width="633"
                    height="245"
                    filterUnits="userSpaceOnUse"
                    color-interpolation-filters="sRGB"
                  >
                    <feFlood flood-opacity="0" result="BackgroundImageFix" />
                    <feColorMatrix
                      in="SourceAlpha"
                      type="matrix"
                      values="0 0 0 0 0 0 0 0 0 0 0 0 0 0 0 0 0 0 127 0"
                      result="hardAlpha"
                    />
                    <feOffset />
                    <feGaussianBlur stdDeviation="2" />
                    <feComposite in2="hardAlpha" operator="out" />
                    <feColorMatrix
                      type="matrix"
                      values="0 0 0 0 0 0 0 0 0 0 0 0 0 0 0 0 0 0 0.15 0"
                    />
                    <feBlend
                      mode="normal"
                      in2="BackgroundImageFix"
                      result="effect1_dropShadow_107_2637"
                    />
                    <feBlend
                      mode="normal"
                      in="SourceGraphic"
                      in2="effect1_dropShadow_107_2637"
                      result="shape"
                    />
                  </filter>
                  <linearGradient
                    id="paint0_linear_107_2637"
                    x1="4"
                    y1="122.5"
                    x2="629"
                    y2="122.5"
                    gradientUnits="userSpaceOnUse"
                  >
                    <stop stop-color="#C2A1FD" />
                    <stop offset="1" stop-color="#9154FD" />
                  </linearGradient>
                </defs>
              </svg>