<svg width="40" height="40" viewBox="0 0 40 40" fill="none" xmlns="http://www.w3.org/2000/svg">
<rect width="40" height="40" rx="8" fill="#FFDCA6"/>
<g clip-path="url(#clip0_340_4590)">
<path d="M26.0117 11H13.9883C12.3379 11 11 12.37 11 14.06V25.9112C11 27.6012 12.3379 28.9712 13.9883 28.9712H26.0117C27.6621 28.9712 29 27.6012 29 25.9112V14.06C29 12.37 27.6621 11 26.0117 11Z" fill="#3A3541"/>
<path d="M19.7223 21.7853H16.933L16.3654 23.5905C16.3577 23.6235 16.339 23.6526 16.3126 23.6729C16.2861 23.6932 16.2536 23.7035 16.2205 23.7018H14.8077C14.7272 23.7018 14.699 23.6565 14.7232 23.5658L17.1382 16.4437C17.1624 16.3695 17.1865 16.2851 17.2107 16.1902C17.2423 16.0252 17.2585 15.8576 17.259 15.6895C17.2573 15.6777 17.2584 15.6657 17.262 15.6544C17.2657 15.6432 17.2719 15.6329 17.2801 15.6245C17.2883 15.6161 17.2983 15.6098 17.3093 15.606C17.3203 15.6023 17.332 15.6012 17.3435 15.6029H19.2634C19.3197 15.6029 19.3519 15.6235 19.36 15.6648L22.101 23.5782C22.1252 23.6607 22.101 23.7019 22.0286 23.7018H20.4588C20.4319 23.7049 20.4047 23.6978 20.3825 23.6819C20.3603 23.666 20.3445 23.6423 20.3381 23.6153L19.7223 21.7853ZM17.3677 20.2273H19.2755L19.2483 20.1354L19.2047 19.9898L19.1735 19.8876L19.1238 19.7266L19.0181 19.3877L18.9252 19.0872L18.6838 18.3046C18.6237 18.11 18.566 17.9147 18.5108 17.7186L18.4667 17.5595L18.415 17.3714L18.3363 17.0798L18.3215 17.0249H18.3095C18.2491 17.3216 18.1755 17.6155 18.089 17.9054L17.9099 18.4955L17.8113 18.8215L17.7118 19.1516C17.6938 19.2112 17.6759 19.2702 17.658 19.3284L17.6046 19.5011L17.5514 19.6697L17.4985 19.8342L17.4459 19.9945C17.4285 20.0473 17.4111 20.0993 17.3937 20.1507L17.3677 20.2273ZM23.731 16.9135C23.6079 16.9186 23.4851 16.897 23.3706 16.8501C23.2562 16.8032 23.1527 16.7322 23.0669 16.6415C22.9814 16.547 22.9149 16.436 22.8714 16.315C22.8279 16.1941 22.8081 16.0655 22.8133 15.9367C22.8089 15.8092 22.8309 15.6822 22.8777 15.564C22.9245 15.4457 22.9951 15.3389 23.085 15.2506C23.2583 15.0802 23.4891 14.9848 23.7294 14.9844L23.7551 14.9847C24.045 14.9847 24.2724 15.0732 24.4375 15.2505C24.5207 15.3426 24.5855 15.4506 24.6279 15.5684C24.6704 15.6861 24.6898 15.8113 24.685 15.9367C24.69 16.066 24.6696 16.1951 24.6251 16.3161C24.5805 16.4372 24.5125 16.5479 24.4254 16.6416C24.3373 16.7304 24.2328 16.8004 24.118 16.8472C24.0032 16.8941 23.8804 16.917 23.7568 16.9145L23.731 16.9135ZM22.8978 23.5782V17.6678C22.8978 17.5937 22.9299 17.5565 22.9944 17.5565H24.4797C24.544 17.5565 24.5763 17.5936 24.5763 17.6678V23.5782C24.5763 23.6607 24.5441 23.7019 24.4797 23.7018H23.0065C22.9379 23.7018 22.9018 23.6648 22.8982 23.5908L22.8978 23.5782Z" fill="#FF9A00"/>
</g>
<defs>
<clipPath id="clip0_340_4590">
<rect width="18" height="18" fill="white" transform="translate(11 11)"/>
</clipPath>
</defs>
</svg>
