<svg width="40" height="40" viewBox="0 0 40 40" fill="none" xmlns="http://www.w3.org/2000/svg">
<rect width="40" height="40" rx="8" fill="#FFDAE3"/>
<g clip-path="url(#clip0_340_3775)">
<path d="M26.0117 11H13.9883C12.3379 11 11 12.37 11 14.06V25.9112C11 27.6012 12.3379 28.9712 13.9883 28.9712H26.0117C27.6621 28.9712 29 27.6012 29 25.9112V14.06C29 12.37 27.6621 11 26.0117 11Z" fill="#FFDAE3"/>
<path d="M18.2367 15.7014V23.5777C18.2367 23.6602 18.2004 23.7014 18.128 23.7014H16.6669C16.6024 23.7014 16.5702 23.6602 16.5703 23.5777V15.7014C16.5703 15.6355 16.6065 15.6025 16.679 15.6024H18.1401C18.1532 15.6005 18.1666 15.6018 18.1792 15.6061C18.1917 15.6104 18.2031 15.6176 18.2125 15.6272C18.2219 15.6368 18.2289 15.6485 18.2331 15.6614C18.2373 15.6742 18.2385 15.6879 18.2366 15.7014H18.2367ZM23.9964 22.2548V23.5283C23.9974 23.5508 23.9923 23.573 23.9816 23.5927C23.971 23.6123 23.9552 23.6285 23.9361 23.6396C23.7451 23.7129 23.5458 23.7613 23.343 23.7834L23.2961 23.788C23.0815 23.8099 22.8731 23.8222 22.6712 23.8246L22.5957 23.825C22.1386 23.8325 21.6841 23.7528 21.2554 23.5901C20.8779 23.445 20.5358 23.2171 20.2532 22.9224C19.9777 22.6313 19.7622 22.2866 19.6193 21.9085C19.4684 21.5105 19.3926 21.0867 19.3959 20.6597C19.3848 20.0761 19.531 19.5006 19.8185 18.9966C20.0965 18.5237 20.4936 18.1361 20.9682 17.8744L21.0079 17.8528C21.519 17.5727 22.1167 17.4326 22.801 17.4324C23.0392 17.428 23.2774 17.4425 23.5135 17.4757C23.6521 17.4977 23.7892 17.5287 23.924 17.5685C23.967 17.599 23.9902 17.6513 23.9843 17.7045L23.9723 18.9781C23.9723 19.0522 23.9401 19.081 23.8757 19.0646C23.7425 19.016 23.605 18.9808 23.4651 18.9595C23.2653 18.9284 23.0634 18.914 22.8614 18.9163C22.554 18.9115 22.2492 18.9747 21.9679 19.1017C21.7092 19.2191 21.4906 19.4128 21.34 19.6581C21.187 19.9054 21.1105 20.2186 21.1105 20.5979C21.1105 21.0265 21.2011 21.3645 21.3822 21.6118C21.5555 21.8531 21.7952 22.0361 22.0705 22.1373C22.3392 22.2387 22.6233 22.291 22.9097 22.2918C23.0791 22.2926 23.2485 22.2848 23.4171 22.2684L23.4893 22.2609C23.6284 22.2481 23.766 22.2212 23.8999 22.1806C23.9642 22.1641 23.9964 22.1888 23.9964 22.2547V22.2548Z" fill="#FF3366"/>
</g>
<defs>
<clipPath id="clip0_340_3775">
<rect width="18" height="18" fill="white" transform="translate(11 11)"/>
</clipPath>
</defs>
</svg>
