<svg width="40" height="40" viewBox="0 0 40 40" fill="none" xmlns="http://www.w3.org/2000/svg">
<rect width="40" height="40" rx="8" fill="#FFE7EE"/>
<g clip-path="url(#clip0_340_3947)">
<path d="M14.787 22.3427C14.787 23.3855 13.9442 24.2285 12.9013 24.2285C11.8585 24.2285 11.0156 23.3855 11.0156 22.3427C11.0156 21.2999 11.8585 20.457 12.9014 20.457H14.787V22.3427L14.787 22.3427ZM15.7299 22.3427C15.7299 21.2999 16.5728 20.457 17.6156 20.457C18.6585 20.457 19.5014 21.2999 19.5014 22.3427V27.057C19.5014 28.0999 18.6585 28.9428 17.6156 28.9428C16.5728 28.9428 15.7299 28.0999 15.7299 27.057V22.3427V22.3427Z" fill="#E01E5A"/>
<path d="M17.6143 14.7714C16.5714 14.7714 15.7285 13.9286 15.7285 12.8857C15.7285 11.8428 16.5715 11 17.6143 11C18.6571 11 19.5 11.8428 19.5 12.8857V14.7715H17.6142L17.6143 14.7714ZM17.6143 15.7286C18.6572 15.7286 19.5 16.5714 19.5 17.6143C19.5 18.6572 18.6572 19.5 17.6142 19.5H12.8858C11.8428 19.5 11 18.6572 11 17.6142C11 16.5715 11.8428 15.7286 12.8857 15.7286H17.6142H17.6143Z" fill="#36C5F0"/>
<path d="M25.1713 17.6143C25.1713 16.5714 26.0142 15.7285 27.057 15.7285C28.0999 15.7285 28.9428 16.5714 28.9428 17.6143C28.9428 18.6572 28.0999 19.5 27.057 19.5H25.1713V17.6142V17.6143ZM24.2285 17.6143C24.2285 18.6572 23.3855 19.5 22.3427 19.5C21.2999 19.5 20.457 18.6572 20.457 17.6142V12.8858C20.457 11.8428 21.2999 11 22.3427 11C23.3855 11 24.2284 11.8428 24.2284 12.8857V17.6142L24.2285 17.6143Z" fill="#2EB67D"/>
<path d="M22.3427 25.1713C23.3855 25.1713 24.2285 26.0142 24.2285 27.057C24.2285 28.0999 23.3855 28.9428 22.3427 28.9428C21.2999 28.9428 20.457 28.0999 20.457 27.057V25.1713H22.3427H22.3427ZM22.3427 24.2285C21.2999 24.2285 20.457 23.3855 20.457 22.3427C20.457 21.2999 21.2999 20.457 22.3427 20.457H27.0713C28.1141 20.457 28.957 21.2999 28.957 22.3427C28.957 23.3855 28.1141 24.2285 27.0713 24.2285H22.3427H22.3427Z" fill="#ECB22E"/>
</g>
<defs>
<clipPath id="clip0_340_3947">
<rect width="18" height="18" fill="white" transform="translate(11 11)"/>
</clipPath>
</defs>
</svg>
