<svg width="40" height="40" viewBox="0 0 40 40" fill="none" xmlns="http://www.w3.org/2000/svg">
<rect width="40" height="40" rx="8" fill="#E2F9FF"/>
<path d="M12.7812 12.9785H27.2184V27.0219H12.7812V12.9785Z" fill="#0C0824"/>
<path d="M12.7814 12.9787H27.2186V27.0221H12.7814V12.9787ZM12.125 27.6785H27.875V12.3223H12.125V27.6785ZM22.7433 18.6223C22.2247 18.6223 22.0475 18.885 22.0475 19.1015C22.0475 19.3378 22.1656 19.502 22.8614 19.8626C23.8919 20.3615 24.2114 20.8402 24.2114 21.5428C24.2114 22.593 23.411 23.1571 22.3282 23.1571C21.8635 23.1744 21.4016 23.0778 20.9827 22.8759C20.9366 22.8562 20.9304 22.8236 20.9304 22.7707V21.8049C20.9304 21.7391 20.963 21.7194 21.0091 21.7526C21.4025 22.0056 21.8605 22.1399 22.3282 22.1396C22.8468 22.1396 23.0634 21.923 23.0634 21.6277C23.0634 21.3915 22.9126 21.1816 22.2494 20.8402C21.3174 20.3941 20.9304 19.9402 20.9304 19.1865C20.9304 18.3399 21.593 17.6379 22.7416 17.6379C23.1414 17.6207 23.5407 17.6832 23.9161 17.8218C23.9377 17.8359 23.9552 17.8554 23.9668 17.8784C23.9784 17.9015 23.9836 17.9272 23.9819 17.9529V18.8529C23.9819 18.9052 23.9493 18.9384 23.8835 18.9187C23.5365 18.719 23.1419 18.6169 22.7416 18.6234L22.7433 18.6223ZM17.0992 19.403C17.2499 19.416 17.3681 19.416 17.6308 19.416C18.3986 19.416 19.1202 19.1471 19.1202 18.1036C19.1202 17.27 18.6016 16.8504 17.7292 16.8504C17.4665 16.8504 17.2173 16.8633 17.0992 16.8701V19.403ZM15.9309 15.9155C15.9309 15.8694 16.0226 15.8368 16.0754 15.8368C16.6395 15.8137 17.204 15.8028 17.7686 15.8041C19.5866 15.8041 20.2953 16.8015 20.2953 18.075C20.2953 19.7416 19.0876 20.4571 17.6049 20.4571C17.3557 20.4571 17.2702 20.4442 17.093 20.4442V22.9642C17.093 23.0165 17.0733 23.043 17.0143 23.043H16.0102C15.9579 23.043 15.9314 23.0233 15.9314 22.9642V15.9183L15.9309 15.9155Z" fill="#31C5F0"/>
</svg>
