<svg width="50" height="17" viewBox="0 0 50 17" fill="none" xmlns="http://www.w3.org/2000/svg">
<path d="M25.8588 5.55664C25.8303 7.80586 27.8633 9.06094 29.3947 9.80723C30.9682 10.5729 31.4967 11.0639 31.4904 11.7486C31.4787 12.7965 30.2354 13.259 29.0719 13.277C27.042 13.3084 25.8617 12.7289 24.9234 12.2906L24.1922 15.7123C25.1336 16.1461 26.8768 16.5244 28.6844 16.541C32.9275 16.541 35.7035 14.4465 35.7186 11.199C35.7352 7.07754 30.0178 6.84941 30.0568 5.00723C30.0703 4.44863 30.6033 3.85254 31.7713 3.70098C32.3494 3.62441 33.9453 3.56582 35.7547 4.39902L36.4648 1.08848C35.4918 0.73418 34.2412 0.394922 32.6842 0.394922C28.6904 0.394922 25.8814 2.51797 25.8588 5.55664M43.2887 0.680078C42.5139 0.680078 41.8609 1.13203 41.5695 1.82559L35.5084 16.2979H39.7484L40.5922 13.966H45.7734L46.2629 16.2979H50L46.7389 0.680078H43.2887M43.8818 4.89902L45.1055 10.7637H41.7543L43.8818 4.89902M20.718 0.680273L17.3758 16.2977H21.4162L24.7568 0.679883H20.718M14.7408 0.679883L10.5354 11.3102L8.83418 2.27168C8.63457 1.2627 7.84629 0.680078 6.9709 0.680078H0.0962891L0 1.13359C1.41133 1.43984 3.01484 1.93379 3.98633 2.4623C4.58086 2.78516 4.75039 3.06738 4.9457 3.83457L8.16777 16.2979H12.4375L18.9836 0.680078H14.7408" fill="url(#paint0_linear_340_11210)"/>
<defs>
<linearGradient id="paint0_linear_340_11210" x1="22.987" y1="16.8649" x2="23.4544" y2="0.282632" gradientUnits="userSpaceOnUse">
<stop stop-color="#222357"/>
<stop offset="1" stop-color="#254AA5"/>
</linearGradient>
</defs>
</svg>
